{
  "title": "Goodbye.to.Language.[Adieu.au.Langage].2014.BRRip.x264.HORiZON-A",
  "uid": 11643352,
  "size": 1787262852,
  "categoryP": "video",
  "categoryS": "movies",
  "magnet": "?xt=urn:btih:1d08852d6dd4e9052c1fb215fded75b67ccb9f29&amp;dn=Goodbye.to.Language.%5BAdieu.au.Langage%5D.2014.BRRip.x264.HORiZON-A&amp;tr=udp%3A%2F%2Ftracker.openbittorrent.com%3A80&amp;tr=udp%3A%2F%2Fopen.demonii.com%3A1337&amp;tr=udp%3A%2F%2Ftracker.coppersurfer.tk%3A6969&amp;tr=udp%3A%2F%2Fexodus.desync.com%3A6969",
  "seeders": 77,
  "leechers": 5,
  "uploader": "lletaif",
  "files": 1,
  "time": 1417790185,
  "description": "Title:\nGoodbye to Language Aka Adieu au Langage\n\n\nDirector:\nJean-Luc Godard\n\n\nLanguage:\nFrench\n\n\nNo Subtitle\n\n\nIMDB: &lt;a href=&quot;\nhttp://www.imdb.com/title/tt2400275&quot; rel=&quot;nofollow&quot; target=&quot;_NEW&quot;&gt;\nhttp://www.imdb.com/title/tt2400275&lt;/a&gt;\n\n\nPlot:\nThe idea is simple: A married woman and a single man meet. They love, they argue, fists fly. A dog strays between town and country. The seasons pass. The man and woman meet again. The dog finds itself between them. The other is in one, the one is in the other and they are three. The former husband shatters everything. A second film begins: the same as the first, and yet not. From the human race we pass to metaphor. This ends in barking and a baby's cries. \n\n\nTrivia:\nWon Prix of Jury in Cannes Film Festival 2014\n\n\n\nMedia Info:\n\nGeneral\nUnique ID                                : 212095926045011490369839971968619180995 (0x9F9030836ABA42CFAF7493F2B338F3C3)\nComplete name                            : Goodbye.to.Language.[Adieu.au.Langage].2014.BRRip.x264.HORiZON-ArtSubs.mkv\nFormat                                   : Matroska\nFormat version                           : Version 2\nFile size                                : 1.66 GiB\nDuration                                 : 1h 9mn\nOverall bit rate                         : 3 439 Kbps\nMovie name                               : adieu.au.langage.2014.french.1080p.bluray.x264-seight\nEncoded date                             : UTC 2014-12-04 23:44:07\nWriting application                      : DVDFab 9.1.4.0\nWriting library                          : libebml v0.7.8 + libmatroska v0.8.1\n\nVideo\nID                                       : 1\nFormat                                   : AVC\nFormat/Info                              : Advanced Video Codec\nFormat profile                           : &lt;a class=&quot;__cf_email__&quot; href=&quot;/cdn-cgi/l/email-protection&quot; data-cfemail=&quot;99d1f0fef1d9d5adb7a8&quot;&gt;[email&amp;#160;protected]&lt;/a&gt;&lt;script cf-hash='f9e31' type=&quot;text/javascript&quot;&gt;\n/* &lt;![CDATA[ */!function(){try{var t=&quot;currentScript&quot;in document?document.currentScript:function(){for(var t=document.getElementsByTagName(&quot;script&quot;),e=t.length;e--;)if(t[e].getAttribute(&quot;cf-hash&quot;))return t[e]}();if(t&amp;&amp;t.previousSibling){var e,r,n,i,c=t.previousSibling,a=c.getAttribute(&quot;data-cfemail&quot;);if(a){for(e=&quot;&quot;,r=parseInt(a.substr(0,2),16),n=2;a.length-n;n+=2)i=parseInt(a.substr(n,2),16)^r,e+=String.fromCharCode(i);e=document.createTextNode(e),c.parentNode.replaceChild(e,c)}}}catch(u){}}();/* ]]&gt; */&lt;/script&gt;\nFormat settings, CABAC                   : Yes\nFormat settings, ReFrames                : 2 frames\nFormat settings, GOP                     : M=3, N=24\nCodec ID                                 : V_MPEG4/ISO/AVC\nDuration                                 : 1h 9mn\nBit rate                                 : 2 923 Kbps\nWidth                                    : 1 920 pixels\nHeight                                   : 1 080 pixels\nDisplay aspect ratio                     : 16:9\nFrame rate mode                          : Constant\nFrame rate                               : 23.976 fps\nColor space                              : YUV\nChroma subsampling                       : 4:2:0\nBit depth                                : 8 bits\nScan type                                : Progressive\nBits/(Pixel*Frame)                       : 0.059\nStream size                              : 1.41 GiB (85%)\nWriting library                          : x264 core\nDefault                                  : Yes\nForced                                   : No\nColor primaries                          : BT.709\nTransfer characteristics                 : BT.709\nMatrix coefficients                      : BT.709\n\nAudio\nID                                       : 2\nFormat                                   : AC-3\nFormat/Info                              : Audio Coding 3\nMode extension                           : CM (complete main)\nFormat settings, Endianness              : Big\nCodec ID                                 : A_AC3\nDuration                                 : 1h 9mn\nBit rate mode                            : Constant\nBit rate                                 : 448 Kbps\nChannel(s)                               : 6 channels\nChannel positions                        : Front: L C R, Side: L R, LFE\nSampling rate                            : 48.0 KHz\nBit depth                                : 16 bits\nCompression mode                         : Lossy\nStream size                              : 222 MiB (13%)\nLanguage                                 : French\nDefault                                  : Yes\nForced                                   : No",
  "parsed": {
    "xt": "urn:btih:1d08852d6dd4e9052c1fb215fded75b67ccb9f29",
    "dn": "Goodbye.to.Language.[Adieu.au.Langage].2014.BRRip.x264.HORiZON-A",
    "tr": [
      "udp://exodus.desync.com:6969",
      "udp://open.demonii.com:1337",
      "udp://tracker.coppersurfer.tk:6969",
      "udp://tracker.openbittorrent.com:80"
    ],
    "infoHash": "1d08852d6dd4e9052c1fb215fded75b67ccb9f29",
    "infoHashBuffer": {
      "type": "Buffer",
      "data": [
        29,
        8,
        133,
        45,
        109,
        212,
        233,
        5,
        44,
        31,
        178,
        21,
        253,
        237,
        117,
        182,
        124,
        203,
        159,
        41
      ]
    },
    "name": "Goodbye.to.Language.[Adieu.au.Langage].2014.BRRip.x264.HORiZON-A",
    "announce": [
      "udp://exodus.desync.com:6969",
      "udp://open.demonii.com:1337",
      "udp://tracker.coppersurfer.tk:6969",
      "udp://tracker.openbittorrent.com:80"
    ],
    "urlList": []
  },
  "previous": 83,
  "peers": 147,
  "last_updated": "2016-12-26T18:07:38.189Z"
}